<mxfile host="app.diagrams.net" agent="Mozilla/5.0 (Windows NT 10.0; Win64; x64) AppleWebKit/537.36 (KHTML, like Gecko) Chrome/128.0.0.0 Safari/537.36 Edg/128.0.0.0" version="24.7.7">
  <diagram name="페이지-1" id="3Da0i2k-qqwpGfU_zPxF">
    <mxGraphModel grid="1" page="1" gridSize="10" guides="1" tooltips="1" connect="1" arrows="1" fold="1" pageScale="1" pageWidth="1169" pageHeight="827" math="0" shadow="0">
      <root>
        <mxCell id="0" />
        <mxCell id="1" parent="0" />
        <mxCell id="mzgO7SNqDFtFgu2426jC-3" style="edgeStyle=orthogonalEdgeStyle;rounded=0;orthogonalLoop=1;jettySize=auto;html=1;fillColor=#0050ef;strokeColor=#001DBC;" edge="1" parent="1" source="mzgO7SNqDFtFgu2426jC-1" target="mzgO7SNqDFtFgu2426jC-5">
          <mxGeometry relative="1" as="geometry">
            <mxPoint x="-162.49999999999977" y="300" as="targetPoint" />
          </mxGeometry>
        </mxCell>
        <mxCell id="mzgO7SNqDFtFgu2426jC-1" value="로그인 접속화면" style="rounded=0;whiteSpace=wrap;html=1;" vertex="1" parent="1">
          <mxGeometry x="-235" y="140" width="145" height="40" as="geometry" />
        </mxCell>
        <mxCell id="mzgO7SNqDFtFgu2426jC-2" value="START" style="rounded=1;whiteSpace=wrap;html=1;fillColor=#ffe6cc;strokeColor=#d79b00;arcSize=50;" vertex="1" parent="1">
          <mxGeometry x="-220" y="100" width="115" height="30" as="geometry" />
        </mxCell>
        <mxCell id="mzgO7SNqDFtFgu2426jC-7" value="" style="edgeStyle=orthogonalEdgeStyle;rounded=0;orthogonalLoop=1;jettySize=auto;html=1;fillColor=#0050ef;strokeColor=#001DBC;" edge="1" parent="1" source="mzgO7SNqDFtFgu2426jC-5" target="mzgO7SNqDFtFgu2426jC-6">
          <mxGeometry relative="1" as="geometry" />
        </mxCell>
        <mxCell id="mzgO7SNqDFtFgu2426jC-14" style="edgeStyle=orthogonalEdgeStyle;rounded=0;orthogonalLoop=1;jettySize=auto;html=1;exitX=1;exitY=0.5;exitDx=0;exitDy=0;fillColor=#0050ef;strokeColor=#001DBC;" edge="1" parent="1" source="mzgO7SNqDFtFgu2426jC-5" target="mzgO7SNqDFtFgu2426jC-8">
          <mxGeometry relative="1" as="geometry" />
        </mxCell>
        <mxCell id="mzgO7SNqDFtFgu2426jC-5" value="이미 계정이 있습니까?" style="rhombus;whiteSpace=wrap;html=1;" vertex="1" parent="1">
          <mxGeometry x="-257.5" y="290" width="190" height="80" as="geometry" />
        </mxCell>
        <mxCell id="mzgO7SNqDFtFgu2426jC-13" style="edgeStyle=orthogonalEdgeStyle;rounded=0;orthogonalLoop=1;jettySize=auto;html=1;exitX=0;exitY=0.5;exitDx=0;exitDy=0;entryX=0;entryY=0.5;entryDx=0;entryDy=0;fillColor=#d80073;strokeColor=#A50040;" edge="1" parent="1" source="mzgO7SNqDFtFgu2426jC-6" target="mzgO7SNqDFtFgu2426jC-1">
          <mxGeometry relative="1" as="geometry">
            <Array as="points">
              <mxPoint x="-360" y="490" />
              <mxPoint x="-360" y="160" />
            </Array>
          </mxGeometry>
        </mxCell>
        <mxCell id="mzgO7SNqDFtFgu2426jC-19" style="edgeStyle=orthogonalEdgeStyle;rounded=0;orthogonalLoop=1;jettySize=auto;html=1;exitX=1;exitY=0.5;exitDx=0;exitDy=0;fillColor=#0050ef;strokeColor=#001DBC;" edge="1" parent="1" source="mzgO7SNqDFtFgu2426jC-6" target="mzgO7SNqDFtFgu2426jC-8">
          <mxGeometry relative="1" as="geometry" />
        </mxCell>
        <mxCell id="mzgO7SNqDFtFgu2426jC-6" value="회원가입 진행" style="rhombus;whiteSpace=wrap;html=1;" vertex="1" parent="1">
          <mxGeometry x="-257.5" y="450" width="190" height="80" as="geometry" />
        </mxCell>
        <mxCell id="mzgO7SNqDFtFgu2426jC-15" style="edgeStyle=orthogonalEdgeStyle;rounded=0;orthogonalLoop=1;jettySize=auto;html=1;exitX=1;exitY=0.5;exitDx=0;exitDy=0;entryX=1;entryY=0.5;entryDx=0;entryDy=0;fillColor=#d80073;strokeColor=#A50040;" edge="1" parent="1" source="mzgO7SNqDFtFgu2426jC-8" target="mzgO7SNqDFtFgu2426jC-1">
          <mxGeometry relative="1" as="geometry" />
        </mxCell>
        <mxCell id="mzgO7SNqDFtFgu2426jC-16" style="edgeStyle=orthogonalEdgeStyle;rounded=0;orthogonalLoop=1;jettySize=auto;html=1;exitX=0.5;exitY=1;exitDx=0;exitDy=0;fillColor=#0050ef;strokeColor=#001DBC;" edge="1" parent="1" source="mzgO7SNqDFtFgu2426jC-8" target="mzgO7SNqDFtFgu2426jC-18">
          <mxGeometry relative="1" as="geometry">
            <mxPoint x="185.4210526315792" y="620" as="targetPoint" />
          </mxGeometry>
        </mxCell>
        <mxCell id="mzgO7SNqDFtFgu2426jC-8" value="로그인 진행" style="rhombus;whiteSpace=wrap;html=1;" vertex="1" parent="1">
          <mxGeometry x="90" y="450" width="190" height="80" as="geometry" />
        </mxCell>
        <mxCell id="mzgO7SNqDFtFgu2426jC-20" style="edgeStyle=orthogonalEdgeStyle;rounded=0;orthogonalLoop=1;jettySize=auto;html=1;exitX=0.5;exitY=1;exitDx=0;exitDy=0;fillColor=#0050ef;strokeColor=#001DBC;" edge="1" parent="1" source="mzgO7SNqDFtFgu2426jC-18">
          <mxGeometry relative="1" as="geometry">
            <mxPoint x="185.02127659574467" y="700" as="targetPoint" />
          </mxGeometry>
        </mxCell>
        <mxCell id="mzgO7SNqDFtFgu2426jC-18" value="아이디 / 비밀번호 기입" style="rounded=0;whiteSpace=wrap;html=1;" vertex="1" parent="1">
          <mxGeometry x="110" y="590" width="150" height="40" as="geometry" />
        </mxCell>
        <mxCell id="mzgO7SNqDFtFgu2426jC-23" style="edgeStyle=orthogonalEdgeStyle;rounded=0;orthogonalLoop=1;jettySize=auto;html=1;exitX=1;exitY=0.5;exitDx=0;exitDy=0;fillColor=#d80073;strokeColor=#A50040;" edge="1" parent="1" source="mzgO7SNqDFtFgu2426jC-22" target="mzgO7SNqDFtFgu2426jC-24">
          <mxGeometry relative="1" as="geometry">
            <mxPoint x="350" y="740.3333333333335" as="targetPoint" />
          </mxGeometry>
        </mxCell>
        <mxCell id="mzgO7SNqDFtFgu2426jC-38" style="edgeStyle=orthogonalEdgeStyle;rounded=0;orthogonalLoop=1;jettySize=auto;html=1;exitX=0.5;exitY=1;exitDx=0;exitDy=0;entryX=0;entryY=0.5;entryDx=0;entryDy=0;fillColor=#0050ef;strokeColor=#001DBC;" edge="1" parent="1" source="mzgO7SNqDFtFgu2426jC-22" target="mzgO7SNqDFtFgu2426jC-36">
          <mxGeometry relative="1" as="geometry" />
        </mxCell>
        <mxCell id="mzgO7SNqDFtFgu2426jC-22" value="정보를 올바르게&lt;div&gt;입력했습니까?&lt;/div&gt;" style="rhombus;whiteSpace=wrap;html=1;" vertex="1" parent="1">
          <mxGeometry x="90" y="700" width="190" height="80" as="geometry" />
        </mxCell>
        <mxCell id="mzgO7SNqDFtFgu2426jC-25" style="edgeStyle=orthogonalEdgeStyle;rounded=0;orthogonalLoop=1;jettySize=auto;html=1;exitX=1;exitY=0.5;exitDx=0;exitDy=0;fillColor=#d80073;strokeColor=#A50040;" edge="1" parent="1" source="mzgO7SNqDFtFgu2426jC-24" target="mzgO7SNqDFtFgu2426jC-52">
          <mxGeometry relative="1" as="geometry">
            <mxPoint x="700" y="780" as="targetPoint" />
          </mxGeometry>
        </mxCell>
        <mxCell id="mzgO7SNqDFtFgu2426jC-27" style="edgeStyle=orthogonalEdgeStyle;rounded=0;orthogonalLoop=1;jettySize=auto;html=1;exitX=0.5;exitY=1;exitDx=0;exitDy=0;entryX=0.5;entryY=0;entryDx=0;entryDy=0;fillColor=#0050ef;strokeColor=#001DBC;" edge="1" parent="1" source="mzgO7SNqDFtFgu2426jC-24" target="mzgO7SNqDFtFgu2426jC-26">
          <mxGeometry relative="1" as="geometry" />
        </mxCell>
        <mxCell id="mzgO7SNqDFtFgu2426jC-24" value="로그인 재시도" style="rounded=0;whiteSpace=wrap;html=1;" vertex="1" parent="1">
          <mxGeometry x="400" y="710" width="160" height="60" as="geometry" />
        </mxCell>
        <mxCell id="mzgO7SNqDFtFgu2426jC-37" style="edgeStyle=orthogonalEdgeStyle;rounded=0;orthogonalLoop=1;jettySize=auto;html=1;exitX=0.5;exitY=1;exitDx=0;exitDy=0;entryX=0.5;entryY=0;entryDx=0;entryDy=0;fillColor=#0050ef;strokeColor=#001DBC;" edge="1" parent="1" source="mzgO7SNqDFtFgu2426jC-26" target="mzgO7SNqDFtFgu2426jC-36">
          <mxGeometry relative="1" as="geometry" />
        </mxCell>
        <mxCell id="mzgO7SNqDFtFgu2426jC-26" value="&lt;div&gt;재시도 시&lt;/div&gt;&lt;span style=&quot;background-color: initial;&quot;&gt;로그인에 성공했습니까?&lt;/span&gt;" style="rhombus;whiteSpace=wrap;html=1;" vertex="1" parent="1">
          <mxGeometry x="385" y="850" width="190" height="80" as="geometry" />
        </mxCell>
        <mxCell id="mzgO7SNqDFtFgu2426jC-42" style="edgeStyle=orthogonalEdgeStyle;rounded=0;orthogonalLoop=1;jettySize=auto;html=1;exitX=0.5;exitY=1;exitDx=0;exitDy=0;fillColor=#0050ef;strokeColor=#001DBC;" edge="1" parent="1" source="mzgO7SNqDFtFgu2426jC-36" target="mzgO7SNqDFtFgu2426jC-43">
          <mxGeometry relative="1" as="geometry">
            <mxPoint x="480.2413793103451" y="1130" as="targetPoint" />
          </mxGeometry>
        </mxCell>
        <mxCell id="mzgO7SNqDFtFgu2426jC-36" value="최초의 로그인&lt;div&gt;접급입니까?&lt;/div&gt;" style="rhombus;whiteSpace=wrap;html=1;" vertex="1" parent="1">
          <mxGeometry x="385" y="1000" width="190" height="80" as="geometry" />
        </mxCell>
        <mxCell id="mzgO7SNqDFtFgu2426jC-40" value="" style="endArrow=classic;html=1;rounded=0;entryX=0;entryY=0.5;entryDx=0;entryDy=0;fillColor=#d80073;strokeColor=#A50040;" edge="1" parent="1" target="mzgO7SNqDFtFgu2426jC-26">
          <mxGeometry width="50" height="50" relative="1" as="geometry">
            <mxPoint x="320" y="890" as="sourcePoint" />
            <mxPoint x="410" y="790" as="targetPoint" />
          </mxGeometry>
        </mxCell>
        <mxCell id="mzgO7SNqDFtFgu2426jC-41" value="" style="endArrow=none;html=1;rounded=0;fillColor=#d80073;strokeColor=#A50040;" edge="1" parent="1">
          <mxGeometry width="50" height="50" relative="1" as="geometry">
            <mxPoint x="320" y="890" as="sourcePoint" />
            <mxPoint x="320" y="740" as="targetPoint" />
          </mxGeometry>
        </mxCell>
        <mxCell id="mzgO7SNqDFtFgu2426jC-45" style="edgeStyle=orthogonalEdgeStyle;rounded=0;orthogonalLoop=1;jettySize=auto;html=1;exitX=0.5;exitY=1;exitDx=0;exitDy=0;entryX=0.5;entryY=0;entryDx=0;entryDy=0;fillColor=#0050ef;strokeColor=#001DBC;" edge="1" parent="1" source="mzgO7SNqDFtFgu2426jC-43" target="mzgO7SNqDFtFgu2426jC-46">
          <mxGeometry relative="1" as="geometry">
            <mxPoint x="480.2857142857147" y="1220" as="targetPoint" />
          </mxGeometry>
        </mxCell>
        <mxCell id="mzgO7SNqDFtFgu2426jC-43" value="비밀번호 변경 화면" style="rounded=0;whiteSpace=wrap;html=1;" vertex="1" parent="1">
          <mxGeometry x="400" y="1140" width="160" height="40" as="geometry" />
        </mxCell>
        <mxCell id="mzgO7SNqDFtFgu2426jC-49" style="edgeStyle=orthogonalEdgeStyle;rounded=0;orthogonalLoop=1;jettySize=auto;html=1;exitX=0.5;exitY=1;exitDx=0;exitDy=0;fillColor=#0050ef;strokeColor=#001DBC;" edge="1" parent="1" source="mzgO7SNqDFtFgu2426jC-46">
          <mxGeometry relative="1" as="geometry">
            <mxPoint x="479.8000000000002" y="1380" as="targetPoint" />
          </mxGeometry>
        </mxCell>
        <mxCell id="mzgO7SNqDFtFgu2426jC-56" style="edgeStyle=orthogonalEdgeStyle;rounded=0;orthogonalLoop=1;jettySize=auto;html=1;exitX=0;exitY=0.5;exitDx=0;exitDy=0;fillColor=#d80073;strokeColor=#A50040;entryX=0;entryY=0.5;entryDx=0;entryDy=0;" edge="1" parent="1" source="mzgO7SNqDFtFgu2426jC-46" target="mzgO7SNqDFtFgu2426jC-1">
          <mxGeometry relative="1" as="geometry">
            <mxPoint x="-249.99999999999955" y="160" as="targetPoint" />
            <Array as="points">
              <mxPoint x="-450" y="1280" />
              <mxPoint x="-450" y="160" />
            </Array>
          </mxGeometry>
        </mxCell>
        <mxCell id="mzgO7SNqDFtFgu2426jC-46" value="비밀번호를&lt;div&gt;변경하였습니까?&lt;/div&gt;" style="rhombus;whiteSpace=wrap;html=1;" vertex="1" parent="1">
          <mxGeometry x="385" y="1240" width="190" height="80" as="geometry" />
        </mxCell>
        <mxCell id="mzgO7SNqDFtFgu2426jC-50" value="재로그인 안내 알림" style="rounded=0;whiteSpace=wrap;html=1;" vertex="1" parent="1">
          <mxGeometry x="400" y="1380" width="160" height="60" as="geometry" />
        </mxCell>
        <mxCell id="mzgO7SNqDFtFgu2426jC-52" value="&lt;font style=&quot;font-size: 22px;&quot;&gt;Error Message&lt;/font&gt;" style="text;html=1;align=center;verticalAlign=middle;whiteSpace=wrap;rounded=0;strokeWidth=6;labelBackgroundColor=#FF8000;" vertex="1" parent="1">
          <mxGeometry x="660" y="790" width="130" height="80" as="geometry" />
        </mxCell>
        <mxCell id="mzgO7SNqDFtFgu2426jC-54" value="no" style="text;html=1;align=center;verticalAlign=middle;whiteSpace=wrap;rounded=0;fontSize=20;" vertex="1" parent="1">
          <mxGeometry x="260" y="710" width="60" height="30" as="geometry" />
        </mxCell>
        <mxCell id="mzgO7SNqDFtFgu2426jC-55" value="yes" style="text;html=1;align=center;verticalAlign=middle;whiteSpace=wrap;rounded=0;fontSize=20;" vertex="1" parent="1">
          <mxGeometry x="120" y="780" width="60" height="30" as="geometry" />
        </mxCell>
        <mxCell id="mzgO7SNqDFtFgu2426jC-57" value="yes" style="text;html=1;align=center;verticalAlign=middle;whiteSpace=wrap;rounded=0;fontSize=20;" vertex="1" parent="1">
          <mxGeometry x="190" y="370" width="60" height="30" as="geometry" />
        </mxCell>
        <mxCell id="mzgO7SNqDFtFgu2426jC-58" value="yes" style="text;html=1;align=center;verticalAlign=middle;whiteSpace=wrap;rounded=0;fontSize=20;" vertex="1" parent="1">
          <mxGeometry x="-160" y="380" width="60" height="30" as="geometry" />
        </mxCell>
        <mxCell id="mzgO7SNqDFtFgu2426jC-59" value="yes" style="text;html=1;align=center;verticalAlign=middle;whiteSpace=wrap;rounded=0;fontSize=20;" vertex="1" parent="1">
          <mxGeometry x="-160" y="220" width="60" height="30" as="geometry" />
        </mxCell>
        <mxCell id="mzgO7SNqDFtFgu2426jC-60" value="no" style="text;html=1;align=center;verticalAlign=middle;whiteSpace=wrap;rounded=0;fontSize=20;" vertex="1" parent="1">
          <mxGeometry x="560" y="710" width="60" height="30" as="geometry" />
        </mxCell>
        <mxCell id="mzgO7SNqDFtFgu2426jC-61" value="no" style="text;html=1;align=center;verticalAlign=middle;whiteSpace=wrap;rounded=0;fontSize=20;" vertex="1" parent="1">
          <mxGeometry x="320" y="860" width="60" height="30" as="geometry" />
        </mxCell>
        <mxCell id="mzgO7SNqDFtFgu2426jC-62" value="no" style="text;html=1;align=center;verticalAlign=middle;whiteSpace=wrap;rounded=0;fontSize=20;" vertex="1" parent="1">
          <mxGeometry x="550" y="1000" width="60" height="30" as="geometry" />
        </mxCell>
        <mxCell id="mzgO7SNqDFtFgu2426jC-63" value="yes" style="text;html=1;align=center;verticalAlign=middle;whiteSpace=wrap;rounded=0;fontSize=20;" vertex="1" parent="1">
          <mxGeometry x="-70" y="460" width="60" height="30" as="geometry" />
        </mxCell>
        <mxCell id="mzgO7SNqDFtFgu2426jC-64" value="yes" style="text;html=1;align=center;verticalAlign=middle;whiteSpace=wrap;rounded=0;fontSize=20;" vertex="1" parent="1">
          <mxGeometry x="480" y="930" width="60" height="30" as="geometry" />
        </mxCell>
        <mxCell id="mzgO7SNqDFtFgu2426jC-65" value="yes" style="text;html=1;align=center;verticalAlign=middle;whiteSpace=wrap;rounded=0;fontSize=20;" vertex="1" parent="1">
          <mxGeometry x="480" y="1090" width="60" height="30" as="geometry" />
        </mxCell>
        <mxCell id="mzgO7SNqDFtFgu2426jC-66" value="yes" style="text;html=1;align=center;verticalAlign=middle;whiteSpace=wrap;rounded=0;fontSize=20;" vertex="1" parent="1">
          <mxGeometry x="480" y="770" width="60" height="30" as="geometry" />
        </mxCell>
      </root>
    </mxGraphModel>
  </diagram>
</mxfile>
